# xmcd
#
# Track frame offsets: 
#        150
#        22304
#        36028
#        50257
#        67168
#        90829
#        108350
#        124536
#        138301
#        155665
#        171561
#
# Disc length: 2513 seconds
#
# Revision: 0
# Processed by: cddbd v1.5.2PL0 Copyright (c) Steve Scherf et al.
# Submitted via: ExactAudioCopy v1.3
#
DISCID=9409cf0b
DTITLE=Lisa Lystam Family Band - Iii
DYEAR=2019
DGENRE=Blues Rock
TTITLE0=Get Out Of Bed
TTITLE1=High Expectations
TTITLE2=Crying Through The Day
TTITLE3=I Can't Hold You Glory
TTITLE4=Glory
TTITLE5=Bring Me Somewhere
TTITLE6=Luke
TTITLE7=Take Me
TTITLE8=Can I Get A Little
TTITLE9=Wherever I Can Find My Love
TTITLE10=Not As Good As I Sound
EXTD=
EXTT0=
EXTT1=
EXTT2=
EXTT3=
EXTT4=
EXTT5=
EXTT6=
EXTT7=
EXTT8=
EXTT9=
EXTT10=
PLAYORDER=
